<?xml version="1.0" standalone="no"?>
<!DOCTYPE svg PUBLIC "-//W3C//DTD SVG 20010904//EN"
 "http://www.w3.org/TR/2001/REC-SVG-20010904/DTD/svg10.dtd">
<svg version="1.0" xmlns="http://www.w3.org/2000/svg"
 width="500.000000pt" height="500.000000pt" viewBox="0 0 500.000000 500.000000"
 preserveAspectRatio="xMidYMid meet">
<metadata>
Created by potrace 1.11, written by Peter Selinger 2001-2013
</metadata>
<g transform="translate(0.000000,500.000000) scale(0.100000,-0.100000)"
fill="#000000" stroke="none">
<path d="M2106 4975 c-6 -17 7 -19 34 -5 13 7 21 7 26 -1 8 -14 -16 -30 -31
-21 -5 3 -4 -2 4 -11 7 -9 20 -17 28 -17 26 0 9 -21 -32 -39 -36 -16 -42 -16
-54 -3 -12 12 -11 13 10 8 13 -3 18 -3 11 0 -10 5 -9 10 4 25 13 15 15 22 6
31 -9 9 -12 8 -12 -4 0 -9 -8 -23 -18 -30 -12 -8 -19 -25 -19 -44 0 -31 9 -36
35 -20 8 5 33 10 55 12 40 4 41 4 24 -13 -12 -12 -35 -18 -73 -19 -37 -1 -62
-8 -72 -18 -15 -15 -14 -16 18 -10 19 4 42 10 50 14 12 7 15 2 14 -25 -1 -18
-5 -38 -9 -44 -12 -21 14 -11 32 12 10 12 26 21 36 19 10 -2 25 2 33 9 28 23
24 2 -6 -27 -32 -31 -44 -91 -16 -81 22 9 13 -39 -12 -66 -19 -20 -33 -62 -15
-44 12 12 33 -15 33 -42 0 -15 7 -37 16 -49 10 -15 13 -27 6 -35 -16 -20 -7
-55 20 -85 22 -22 26 -34 21 -65 -4 -34 -1 -41 35 -75 22 -20 56 -56 76 -79
l37 -42 -31 -16 c-36 -19 -46 -15 -53 23 -3 16 -32 64 -64 108 -77 104 -74 96
-63 133 8 29 5 38 -33 86 -23 29 -45 54 -49 54 -5 1 -8 -17 -8 -39 0 -42 17
-90 32 -90 5 0 17 -7 26 -17 9 -9 12 -14 7 -12 -6 3 -32 15 -60 28 -77 36
-106 40 -253 32 -136 -8 -138 -8 -192 -44 -73 -48 -99 -69 -80 -64 18 5 70
-20 70 -33 0 -13 -4 -13 -35 2 -22 10 -28 9 -36 -3 -7 -11 -9 -11 -9 4 0 16
-2 16 -25 1 -19 -12 -22 -18 -12 -29 7 -7 15 -11 20 -8 4 2 7 -1 7 -6 0 -16
-11 -13 -32 6 -26 23 -49 8 -65 -43 -22 -68 -25 -72 -43 -77 -11 -3 -34 -26
-51 -51 -18 -25 -36 -46 -40 -46 -13 0 -59 -88 -59 -114 0 -15 6 -35 12 -46
10 -16 10 -22 -5 -32 -10 -8 -20 -32 -23 -60 -6 -47 -6 -48 50 -103 31 -30 62
-55 69 -55 7 0 23 -3 37 -7 24 -6 24 -5 9 13 -34 41 -30 46 12 16 55 -38 89
-70 89 -83 0 -6 4 -8 9 -5 4 3 33 -22 62 -57 30 -34 67 -73 84 -87 16 -14 40
-37 54 -52 13 -16 31 -28 40 -28 9 0 25 -7 35 -15 11 -8 28 -15 38 -15 10 0
41 -23 68 -51 42 -43 54 -50 76 -45 17 5 23 3 19 -4 -12 -20 4 -57 43 -96 21
-22 68 -75 104 -119 78 -94 125 -140 155 -149 15 -5 19 -12 16 -26 -3 -11 -6
-20 -8 -20 -19 0 -103 62 -141 104 -136 149 -220 250 -226 274 -5 17 -28 41
-64 66 -72 50 -144 88 -144 76 0 -5 8 -11 18 -14 9 -4 28 -16 42 -27 18 -15
20 -19 6 -15 -14 5 -17 2 -12 -10 6 -14 -61 -116 -69 -104 -4 6 -115 -63 -115
-72 0 -3 -9 -4 -21 -1 -12 4 -25 0 -31 -8 -7 -10 -8 -5 -3 16 3 17 26 50 51
75 50 52 58 80 19 72 -27 -5 -167 -122 -225 -189 -33 -37 -44 -51 -103 -127
-46 -61 -154 -162 -163 -154 -10 11 11 80 27 89 11 5 19 19 19 29 0 11 11 30
25 42 33 28 32 35 -5 30 -17 -2 -30 -8 -30 -13 0 -6 -15 -19 -34 -30 -19 -11
-39 -33 -45 -50 -5 -16 -17 -29 -25 -29 -9 0 -18 -11 -22 -24 -10 -42 -31 -39
-38 5 -3 21 -10 39 -14 39 -4 0 -15 -19 -23 -42 -18 -48 -41 -56 -74 -23 l-20
20 -3 -49 c-2 -33 2 -53 12 -65 9 -10 16 -23 16 -30 0 -8 14 -29 30 -48 17
-18 30 -40 30 -48 0 -8 5 -15 10 -15 6 0 10 -6 10 -13 0 -8 9 -24 20 -37 34
-39 26 -51 -15 -24 -13 9 -29 13 -35 9 -6 -4 -10 -3 -9 2 3 20 -2 27 -11 13
-8 -12 -10 -10 -10 8 0 13 -4 20 -10 17 -26 -16 -8 -54 51 -106 33 -30 64 -56
70 -57 20 -7 39 -63 39 -115 0 -66 19 -95 117 -171 90 -71 261 -291 241 -311
-2 -3 -18 -7 -35 -9 -36 -4 -88 -34 -122 -70 -18 -19 -22 -31 -17 -53 4 -15 8
-34 9 -41 1 -8 -24 -22 -65 -37 -36 -13 -122 -50 -191 -83 -112 -54 -129 -65
-175 -121 -29 -34 -55 -73 -58 -86 -8 -34 34 -92 98 -135 34 -23 54 -44 56
-58 2 -13 10 -26 18 -29 8 -3 14 -11 14 -19 0 -8 6 -14 13 -14 6 -1 -3 -7 -20
-15 -37 -16 -41 -29 -15 -44 14 -8 15 -12 5 -22 -7 -7 -13 -10 -13 -6 0 3 -16
-5 -36 -18 -20 -14 -42 -25 -48 -25 -6 0 -2 6 9 12 11 6 31 22 44 35 19 19 21
23 7 23 -14 0 -15 4 -6 20 10 18 8 20 -25 20 -20 0 -47 7 -61 16 -28 19 -48 9
-22 -10 16 -12 16 -15 2 -32 -15 -18 -15 -18 -11 4 3 12 2 22 -3 22 -12 0 -21
-30 -13 -42 3 -6 2 -8 -4 -5 -17 11 -50 -73 -37 -95 3 -4 17 -3 31 3 27 10 27
10 9 -10 -10 -11 -28 -23 -40 -27 -11 -4 -24 -11 -27 -16 -4 -6 -18 -11 -32
-11 -26 -2 -27 -17 -1 -17 8 0 14 -5 14 -10 0 -17 69 17 160 78 84 57 176 102
209 102 10 0 32 -11 51 -25 36 -27 56 -24 40 5 -19 35 -12 47 32 54 31 5 45 3
57 -9 14 -13 12 -19 -20 -52 -39 -42 -79 -97 -79 -109 0 -5 13 7 28 25 l28 34
13 -31 c7 -17 44 -60 82 -97 38 -36 69 -69 70 -73 0 -4 3 -16 5 -27 3 -11 7
-27 8 -35 6 -28 20 -55 36 -70 9 -8 20 -24 24 -35 l8 -20 8 20 c5 11 11 28 14
38 3 9 15 17 26 17 19 0 19 2 -8 28 -16 15 -37 41 -46 59 l-16 32 34 21 c48
29 169 53 231 45 36 -4 59 -1 81 10 42 20 107 8 178 -35 45 -28 52 -35 41 -47
-8 -7 -17 -13 -22 -13 -4 0 -16 -14 -26 -32 -16 -28 -16 -33 -3 -40 9 -5 16
-14 16 -21 0 -7 9 -18 21 -25 17 -11 30 -10 76 4 37 12 60 14 70 8 20 -12 125
-203 118 -214 -3 -5 9 -30 27 -55 60 -87 80 -125 66 -129 -7 -3 -65 -7 -128
-9 -63 -3 -123 -8 -132 -12 -26 -10 -11 -25 25 -25 43 0 120 -24 125 -38 2 -8
46 -12 140 -12 106 0 133 3 124 12 -7 7 -12 19 -12 28 0 9 5 5 13 -10 l13 -25
562 -3 c454 -2 562 0 562 11 0 7 9 13 20 13 11 0 20 -6 20 -13 0 -10 22 -13
84 -13 76 0 86 2 100 22 21 30 20 45 -5 51 -17 5 -19 9 -9 26 7 14 7 21 0 21
-5 0 -10 10 -10 23 -1 20 -2 20 -11 4 -15 -25 -24 -21 -26 12 -1 21 3 30 17
34 10 3 20 1 22 -3 5 -15 35 14 42 40 4 14 4 20 -1 14 -5 -7 -35 -11 -75 -10
-68 1 -79 16 -16 21 18 2 39 3 46 4 9 1 9 6 2 21 -5 11 -14 29 -20 40 -5 11
-10 25 -10 30 0 6 5 8 10 5 6 -4 10 6 10 22 0 22 -5 29 -20 30 -11 1 -20 -3
-20 -9 0 -17 -30 13 -31 31 0 12 -2 11 -8 -4 -8 -19 -8 -19 -20 3 -13 25 -5
112 10 112 5 0 9 6 9 13 0 16 51 67 67 67 6 0 14 -7 17 -16 3 -8 10 -12 16 -9
6 4 7 12 1 22 -6 11 -5 21 3 28 17 17 107 77 109 73 25 -48 36 -84 41 -132 7
-85 20 -87 39 -7 15 62 15 72 2 105 -21 50 -8 67 93 116 148 71 198 125 186
199 -9 59 1 86 59 149 50 55 102 122 95 122 -2 0 -29 -23 -58 -52 -53 -51 -54
-52 -60 -28 -4 20 -33 39 -145 97 -77 40 -159 78 -183 84 -43 12 -43 12 -37
50 6 36 4 40 -27 59 -18 11 -37 22 -43 24 -20 7 40 56 94 76 31 12 74 30 97
41 22 10 46 19 52 19 7 0 39 13 71 30 75 37 125 100 115 145 -11 57 -39 135
-49 138 -5 2 -86 -2 -180 -9 -169 -12 -215 -10 -215 7 0 11 48 54 116 106 55
43 74 78 74 143 0 57 23 115 52 133 26 17 24 50 -2 42 -14 -4 -20 -2 -20 9 0
8 4 17 10 21 5 3 19 19 31 36 l22 31 -22 -12 c-30 -15 -37 -6 -14 17 23 23 76
113 67 113 -3 0 -1 7 6 15 7 8 21 15 31 15 10 0 21 10 25 23 3 12 21 34 38 49
25 22 38 26 67 21 31 -4 40 -1 63 23 17 19 26 41 27 64 2 81 12 102 43 90 21
-8 24 -7 19 8 -3 9 -10 22 -14 27 -4 6 -9 24 -11 40 -2 22 -8 30 -23 30 -15 0
-19 6 -17 24 3 28 -20 66 -49 81 -18 10 -19 10 -10 -8 5 -10 17 -24 25 -32 9
-7 16 -17 16 -22 0 -6 -6 -5 -15 2 -12 10 -16 8 -24 -13 -5 -14 -14 -28 -20
-31 -6 -4 -8 -20 -5 -35 8 -40 -11 -74 -37 -66 -15 5 -22 2 -25 -12 -3 -11
-19 -28 -36 -38 -28 -16 -29 -19 -15 -30 23 -16 21 -25 -3 -25 -15 0 -20 7
-20 28 0 15 -5 33 -11 39 -6 6 -12 24 -13 39 -6 62 -19 125 -27 130 -5 3 -9
14 -9 25 0 11 -7 19 -16 19 -11 0 -14 -6 -9 -20 4 -11 2 -20 -4 -20 -6 0 -11
16 -11 35 0 27 6 37 28 49 15 8 20 15 13 16 -11 0 -12 3 -4 11 14 14 129 14
166 0 25 -10 39 1 18 14 -5 3 -12 19 -16 35 -4 17 -12 30 -19 30 -19 0 -46 34
-46 57 0 11 10 27 21 35 17 11 22 25 24 64 1 28 5 56 9 62 4 7 4 17 1 22 -3 6
-2 10 4 10 6 0 13 16 17 35 3 19 10 35 16 35 11 0 0 70 -15 88 -18 23 -23 12
-22 -55 0 -46 -5 -73 -14 -83 -17 -18 -24 -13 -27 20 -2 14 -6 36 -9 49 -5 21
-8 22 -23 8 -9 -8 -33 -17 -53 -21 -31 -5 -37 -3 -42 13 -6 25 -54 25 -68 0
-5 -10 -15 -18 -21 -16 -11 2 -13 -2 -17 -35 -2 -21 -21 14 -21 40 0 17 -9 27
-35 38 -42 17 -51 18 -37 1 15 -18 -11 -49 -42 -51 -28 -1 -34 -11 -13 -19 9
-4 9 -6 0 -6 -7 -1 -10 -8 -6 -16 3 -9 2 -15 -3 -14 -21 3 -28 -2 -14 -11 21
-13 4 -24 -34 -22 -28 2 -33 -1 -30 -15 8 -32 -93 -64 -124 -40 -17 14 -27 1
-27 -36 0 -26 -4 -31 -20 -29 -35 6 -49 5 -69 -3 -17 -7 -16 -5 4 23 23 31 49
46 34 20 -4 -8 -3 -9 2 -5 5 5 9 16 9 24 0 9 6 18 14 21 9 3 11 0 6 -8 -5 -9
-4 -11 3 -6 19 12 14 36 -5 29 -10 -3 -4 5 14 18 18 13 35 34 38 46 3 12 14
27 25 33 13 7 20 21 20 40 0 22 5 30 18 30 13 0 14 2 4 9 -10 6 -6 10 15 14
15 3 41 18 57 32 38 33 47 23 12 -14 l-28 -29 41 -4 c44 -4 77 13 68 35 -4 11
0 13 14 10 13 -4 21 2 28 20 6 15 20 36 32 48 14 14 19 28 14 42 -20 67 -21
173 -2 125 3 -7 6 -4 7 7 1 11 3 28 5 38 2 11 -11 35 -31 57 -19 20 -34 46
-34 56 0 18 -12 40 -63 110 -12 18 -29 45 -38 61 -10 19 -49 50 -101 81 -47
29 -91 59 -98 68 -8 8 -43 29 -78 45 -78 35 -137 37 -234 9 -37 -12 -73 -18
-78 -15 -14 9 -12 36 5 69 21 40 18 128 -4 124 -9 -2 -21 3 -27 10 -8 11 -13
6 -22 -24 -7 -22 -28 -57 -47 -79 -28 -32 -36 -37 -44 -26 -6 10 -6 22 1 34 5
10 7 30 4 43 -4 13 -2 24 3 24 5 0 11 9 14 20 3 11 11 20 19 20 7 0 22 14 32
30 14 25 15 34 6 45 -8 9 -8 15 -2 15 5 0 8 9 5 21 -4 13 2 27 16 40 l21 20
-20 30 c-20 26 -20 29 -4 29 14 0 15 3 6 12 -21 21 -14 48 11 48 22 0 20 3
-19 45 l-41 45 -536 0 c-466 0 -536 -2 -541 -15z m1232 -603 c6 -18 -15 -14
-22 4 -4 10 -1 14 6 12 6 -2 14 -10 16 -16z m108 0 c10 -10 35 -24 54 -31 41
-16 60 -31 41 -31 -7 0 -11 -6 -8 -13 3 -8 -7 -21 -24 -31 -19 -11 -29 -25
-29 -42 0 -13 4 -24 9 -24 5 0 11 -9 14 -20 7 -26 20 -25 32 2 6 12 27 29 48
37 36 13 40 13 59 -6 16 -16 19 -28 13 -52 -6 -30 -37 -57 -53 -47 -4 2 -8 -4
-8 -14 0 -10 3 -17 7 -14 10 6 18 -32 9 -46 -4 -7 -17 -10 -28 -8 -13 4 -23 0
-26 -8 -6 -16 -91 -20 -101 -4 -3 6 -16 10 -29 10 -25 0 -61 32 -49 44 4 4 -1
4 -11 0 -15 -6 -17 -3 -11 15 4 15 2 27 -8 34 -8 7 -17 24 -21 38 -5 24 -3 27
30 32 47 8 64 23 64 58 0 16 -2 29 -4 29 -2 0 -12 3 -22 7 -12 4 -15 3 -10 -5
5 -9 1 -9 -16 -2 -13 6 -31 13 -41 16 -11 4 -17 14 -15 28 4 27 61 33 111 12
33 -13 35 -13 29 2 -3 9 -15 25 -27 34 -11 10 -15 17 -9 18 5 0 19 -8 30 -18z
m-338 -43 c4 -22 -45 -32 -53 -11 -6 17 12 33 35 29 8 -1 16 -9 18 -18z m187
2 c3 -5 1 -12 -5 -16 -5 -3 -10 1 -10 9 0 18 6 21 15 7z m-1273 -76 c21 -24
28 -27 41 -17 20 17 46 5 53 -24 6 -23 7 -23 20 -7 8 11 13 13 14 6 0 -7 6
-13 13 -13 6 0 23 -22 36 -48 l23 -48 -40 -75 -39 -74 -64 -2 c-41 -1 -68 3
-74 11 -5 7 -18 15 -28 19 -11 4 -21 16 -24 26 -3 12 -17 23 -33 26 -36 8 -44
28 -18 46 11 8 30 22 42 31 l21 17 -25 1 c-15 0 -31 5 -38 12 -9 9 -12 8 -12
-5 0 -12 -9 -8 -35 17 -36 35 -46 63 -20 52 9 -3 15 0 15 8 0 7 7 26 15 42 13
27 18 29 73 29 52 0 61 -3 84 -30z m442 -20 c61 -18 75 -30 69 -55 -6 -23 -8
-24 -34 -9 -11 5 -16 15 -13 21 4 7 3 8 -4 4 -15 -9 -49 9 -62 34 -6 11 -9 20
-8 20 2 0 25 -7 52 -15z m-841 -19 c8 -8 27 -17 43 -20 16 -2 30 -5 32 -5 2
-1 -9 -12 -23 -26 -14 -14 -25 -33 -25 -42 0 -14 -2 -14 -15 3 -8 10 -15 29
-15 42 0 14 -4 20 -10 17 -6 -4 -18 -1 -26 6 -14 12 -14 14 2 26 22 16 20 16
37 -1z m1007 -46 c0 -14 -14 -12 -28 2 -19 19 -14 30 8 18 11 -6 20 -15 20
-20z m-220 -5 c23 -25 19 -31 -19 -25 -17 2 -41 25 -41 39 0 20 36 11 60 -14z
m165 -140 c10 -30 22 -55 26 -55 5 0 9 24 9 53 1 37 3 47 10 36 13 -23 20
-208 8 -215 -5 -3 -20 3 -32 15 -12 12 -27 21 -34 21 -6 0 -15 7 -20 16 -11
19 -4 54 9 54 5 0 9 5 9 10 0 7 -19 8 -52 4 -80 -11 -83 -10 -83 9 0 10 -7 22
-15 27 -22 14 0 45 31 45 14 0 23 5 22 13 -2 6 6 12 17 12 11 0 20 -7 20 -15
0 -13 4 -12 22 5 12 11 25 20 29 20 4 0 15 -25 24 -55z m1022 -11 c-3 -3 -12
-4 -19 -1 -8 3 -5 6 6 6 11 1 17 -2 13 -5z m-426 -79 c25 -20 34 -33 34 -56 0
-29 -1 -29 -42 -23 -39 6 -43 4 -43 -15 0 -11 -6 -21 -14 -21 -16 0 -49 62
-37 70 13 8 21 40 11 40 -6 0 -10 5 -10 11 0 7 10 9 25 7 14 -3 28 -1 31 3 7
12 5 12 45 -16z m-618 -90 c14 -40 14 -47 2 -52 -8 -3 -21 -3 -29 0 -8 3 -17
1 -20 -6 -2 -7 -8 -2 -11 11 -4 12 -14 22 -21 22 -17 0 -18 24 -4 51 7 12 21
19 38 19 24 0 30 -7 45 -45z m-41 -108 l27 -22 -25 -12 c-28 -13 -54 5 -54 38
0 25 18 24 52 -4z m-262 2 c0 -5 -4 -7 -10 -4 -5 3 -10 -1 -10 -9 0 -9 -4 -16
-10 -16 -14 0 -12 27 3 33 20 9 27 8 27 -4z m340 1 c13 -9 13 -10 0 -10 -8 0
-22 5 -30 10 -13 9 -13 10 0 10 8 0 22 -5 30 -10z m-330 -59 c0 -22 -16 -36
-24 -22 -8 12 3 41 15 41 5 0 9 -9 9 -19z m600 -26 c0 -2 -9 -9 -20 -15 -16
-9 -20 -8 -20 5 0 8 9 15 20 15 11 0 20 -2 20 -5z m126 -74 c13 -13 24 -28 24
-33 0 -4 17 -27 38 -51 21 -23 52 -64 70 -92 38 -61 47 -71 69 -84 16 -8 15
-11 -6 -28 l-23 -19 81 -28 c44 -16 78 -32 75 -37 -3 -5 -18 -2 -34 6 -30 15
-30 15 -19 -9 7 -13 22 -27 36 -31 15 -3 23 -12 21 -23 -2 -10 3 -17 12 -17
16 0 16 13 4 54 -6 22 -5 23 17 17 13 -4 65 -10 114 -12 80 -5 192 -32 220
-53 13 -10 125 -71 130 -71 2 0 16 12 30 27 27 30 32 49 13 55 -7 3 -8 9 -3
19 5 8 11 23 12 33 5 29 8 29 39 3 16 -13 39 -27 51 -31 13 -4 20 -13 17 -21
-3 -7 -1 -16 5 -20 6 -3 11 -22 11 -41 0 -19 7 -45 15 -58 14 -21 13 -24 -4
-40 -11 -10 -24 -15 -30 -11 -7 4 -8 0 -4 -11 5 -14 3 -15 -15 -5 -12 7 -22 8
-22 3 0 -13 117 -149 134 -155 20 -8 20 -6 1 40 -12 32 -13 45 -2 81 12 38 30
54 33 27 0 -5 4 -17 7 -25 15 -41 21 -83 21 -165 1 -99 -18 -160 -56 -184 -19
-12 -20 -11 -14 13 3 14 3 26 -2 26 -5 0 -16 24 -25 54 -10 30 -24 59 -32 66
-8 7 -15 20 -15 28 0 24 -31 102 -41 102 -5 0 -21 19 -35 42 -24 37 -28 40
-39 25 -14 -19 -60 -23 -71 -6 -3 6 -16 8 -29 5 -23 -6 -51 15 -38 27 3 4 -1
7 -10 7 -9 0 -17 5 -17 10 0 6 -7 10 -16 10 -8 0 -12 5 -9 10 5 8 -49 15 -58
8 -1 -2 -13 7 -26 19 -23 21 -25 21 -37 5 -10 -13 -16 -14 -22 -5 -5 8 -17 10
-36 5 -27 -7 -28 -9 -12 -24 21 -21 20 -28 -3 -28 -10 0 -30 12 -45 27 -14 14
-29 24 -31 21 -9 -8 6 -38 19 -38 13 -1 81 -88 73 -96 -7 -7 -47 16 -70 41
-10 11 -28 20 -40 21 -12 0 -43 10 -69 22 -26 12 -52 22 -59 22 -7 0 -20 6
-28 14 -9 8 -29 18 -46 21 l-30 7 37 -31 c21 -18 39 -31 40 -30 2 1 27 -22 57
-52 30 -30 60 -53 67 -51 8 2 14 -2 14 -8 0 -5 7 -10 15 -10 8 0 15 -7 15 -15
0 -11 -14 -7 -57 17 -32 17 -69 37 -83 44 -14 7 -34 21 -45 31 -11 10 -43 36
-70 58 -61 48 -100 87 -97 98 1 4 -10 7 -25 7 -20 0 -24 3 -14 9 11 7 9 10 -8
16 -17 5 -19 10 -11 20 8 9 3 14 -20 19 -41 8 -48 31 -19 59 13 13 32 38 41
55 10 18 24 35 33 38 8 4 28 18 44 33 28 26 29 42 4 70 -2 3 -17 -8 -33 -24
-34 -32 -41 -23 -9 11 14 15 19 29 14 43 -9 28 -27 26 -59 -6 l-27 -27 11 26
c9 18 9 31 2 44 -8 14 -7 23 5 36 14 16 14 18 -1 24 -9 3 -24 0 -33 -7 -15
-12 -16 -12 -10 4 6 15 3 17 -16 12 -18 -6 -20 -5 -9 6 18 20 15 47 -8 54 -11
3 -20 11 -20 16 0 13 76 -29 106 -60z m-258 22 c20 -15 64 -53 96 -84 l60 -57
-22 -51 c-12 -28 -37 -71 -57 -95 -45 -55 -263 -221 -332 -253 -28 -13 -57
-30 -63 -38 -7 -8 -16 -15 -20 -15 -4 0 -45 39 -91 86 -46 48 -97 94 -112 104
l-28 18 26 20 c14 11 30 22 34 24 4 2 33 41 63 88 62 94 145 185 196 213 17
10 32 16 32 12 0 -3 15 2 33 12 27 14 110 39 140 42 5 1 25 -11 45 -26z m-288
-12 c0 -9 -44 -41 -56 -41 -4 0 3 11 16 25 24 26 40 32 40 16z m1570 -36 c0
-8 -4 -15 -10 -15 -5 0 -10 7 -10 15 0 8 5 15 10 15 6 0 10 -7 10 -15z m-1080
-85 c0 -5 -5 -10 -11 -10 -5 0 -7 5 -4 10 3 6 8 10 11 10 2 0 4 -4 4 -10z
m830 -190 c0 -5 -8 -10 -17 -10 -10 0 -27 -7 -37 -15 -23 -17 -40 -20 -31 -5
3 6 0 10 -7 11 -21 1 44 28 70 29 12 0 22 -4 22 -10z m-1920 -235 c0 -16 -6
-25 -15 -25 -18 0 -20 21 -3 38 17 17 18 16 18 -13z m-40 -16 c0 -47 -16 -69
-51 -69 -22 0 -32 -6 -41 -25 -6 -14 -15 -25 -20 -25 -4 0 -21 -13 -36 -30
-16 -16 -41 -34 -56 -40 -36 -13 -113 -13 -121 1 -11 17 2 21 23 8 18 -11 23
-10 41 12 11 13 21 31 21 39 0 8 24 26 52 40 28 14 58 32 66 40 19 19 104 78
115 79 4 1 7 -13 7 -30z m1155 -123 c20 -16 67 -46 105 -65 73 -39 187 -136
170 -146 -5 -3 -21 5 -34 18 -13 13 -43 35 -68 49 -24 15 -56 38 -71 53 -15
15 -60 44 -99 64 -43 21 -74 43 -76 53 -4 24 23 13 73 -26z m-595 -150 c0 -3
-4 -8 -10 -11 -5 -3 -10 -1 -10 4 0 6 5 11 10 11 6 0 10 -2 10 -4z m-593 -46
c-28 -22 -81 -28 -74 -7 2 6 18 11 36 11 17 -1 28 2 25 7 -3 5 5 9 17 9 21 0
21 0 -4 -20z m704 -22 c20 -22 73 -98 74 -108 0 -3 7 -16 14 -30 13 -23 13
-24 -2 -12 -9 8 -19 23 -22 33 -4 11 -29 40 -56 66 -46 43 -62 73 -39 73 5 0
19 -10 31 -22z m-864 -36 c-15 -2 -27 -10 -27 -18 0 -8 -9 -14 -20 -14 -11 0
-23 0 -27 -1 -4 0 -9 4 -11 10 -2 6 9 15 25 21 15 5 35 14 43 19 9 5 20 4 29
-3 12 -9 9 -12 -12 -14z m-97 -25 c0 -18 -21 -37 -41 -37 -10 0 -19 -5 -21
-11 -2 -7 -10 -10 -17 -8 -14 5 11 38 44 57 26 15 35 15 35 -1z m1857 -19 c9
-7 13 -7 13 1 0 7 5 9 11 6 6 -4 8 -13 5 -21 -3 -8 -1 -14 4 -14 6 0 10 6 10
13 0 7 7 4 15 -7 8 -11 15 -16 15 -12 0 4 7 1 15 -8 23 -23 18 -28 -10 -10
-14 9 -43 18 -63 20 -58 4 -95 16 -117 36 -20 19 -19 19 35 13 30 -4 60 -11
67 -17z m-2297 -108 c0 -5 -2 -10 -4 -10 -3 0 -8 5 -11 10 -3 6 -1 10 4 10 6
0 11 -4 11 -10z m1135 -56 c15 -14 31 -42 36 -63 5 -21 61 -131 124 -244 64
-114 114 -211 110 -217 -15 -25 -37 -4 -86 83 -120 210 -184 305 -197 292 -3
-3 -11 0 -18 6 -22 18 -28 -15 -9 -51 9 -18 12 -29 6 -26 -10 6 -44 74 -55
109 -5 16 -27 17 -271 17 -263 0 -265 0 -265 -21 0 -12 52 -115 116 -230 64
-115 114 -214 112 -220 -4 -11 -226 383 -244 435 l-12 31 -131 3 -131 3 0 -76
0 -76 58 -56 57 -55 -62 52 c-35 29 -63 58 -63 65 0 18 -28 45 -46 45 -8 0
-14 -7 -14 -15 0 -9 -6 -12 -15 -9 -12 5 -15 -2 -15 -29 0 -30 6 -41 38 -64
60 -44 137 -131 218 -246 78 -111 91 -139 63 -145 -10 -2 -32 23 -64 70 -68
102 -160 213 -203 245 -20 15 -54 43 -74 62 l-38 35 0 125 0 125 32 33 32 33
492 0 491 0 28 -26z m1772 -6 l33 -32 0 -132 0 -132 -35 -31 c-20 -17 -39 -31
-44 -31 -11 0 -126 -118 -153 -158 -21 -30 -62 -51 -74 -39 -16 16 123 180
204 239 l54 40 -4 53 c-5 56 -20 78 -62 95 -27 10 -28 8 -39 -85 -2 -16 -5 5
-6 48 l-1 77 -275 0 -275 0 0 -22 c-1 -27 -253 -481 -271 -487 -7 -2 -1 16 13
40 110 190 238 431 238 448 0 21 -4 22 -127 19 l-127 -3 -7 -27 c-9 -34 -90
-181 -96 -175 -2 3 5 24 17 47 16 32 19 45 10 56 -25 29 -68 -23 -187 -228
-45 -77 -77 -109 -93 -91 -4 4 44 100 107 213 63 113 117 219 120 235 3 17 19
45 36 63 l31 32 490 0 490 0 33 -32z m-1783 -244 c3 -8 2 -12 -4 -9 -6 3 -10
10 -10 16 0 14 7 11 14 -7z m24 -49 c-3 -3 -9 2 -12 12 -6 14 -5 15 5 6 7 -7
10 -15 7 -18z m670 -80 c-6 -14 -13 -23 -15 -21 -5 5 15 46 22 46 3 0 -1 -11
-7 -25z m-1457 -12 c13 -16 12 -17 -3 -4 -10 7 -18 15 -18 17 0 8 8 3 21 -13z
m63 -79 c3 -8 2 -12 -4 -9 -6 3 -10 10 -10 16 0 14 7 11 14 -7z m1285 -118
c-9 -10 -410 -106 -439 -106 -38 0 -157 -30 -259 -65 -41 -14 -76 -25 -78 -25
-3 0 5 14 17 30 64 91 -75 75 -237 -26 -50 -31 -73 -51 -71 -63 2 -10 30 -26
73 -41 39 -14 85 -33 103 -43 65 -36 35 -82 -121 -181 -62 -40 -101 -58 -133
-62 -65 -8 -54 14 24 46 34 14 62 28 62 32 0 7 -34 4 -70 -6 -21 -7 -19 -4 10
17 101 73 112 95 55 108 -49 12 -119 29 -142 34 -18 4 -23 12 -23 39 0 47 -20
62 -58 42 -31 -16 -97 -24 -108 -14 -3 4 11 10 32 13 80 14 93 24 52 42 -20 9
-12 15 73 60 51 28 145 70 207 92 204 75 296 87 381 51 46 -20 50 -21 202 -5
267 28 459 41 448 31z m1376 -21 c-16 -14 -55 -29 -85 -36 -140 -27 -270 -69
-220 -69 8 0 -7 -13 -35 -28 -27 -16 -67 -38 -88 -50 -46 -27 -70 -28 -39 -3
12 11 22 22 22 25 0 3 -24 6 -53 6 -47 0 -62 -6 -147 -61 -52 -33 -114 -81
-138 -105 -36 -37 -49 -44 -81 -44 -21 0 -60 -3 -87 -6 l-49 -7 35 38 c19 20
74 64 122 96 47 32 90 63 93 70 8 11 -59 5 -125 -12 -19 -5 -60 -9 -90 -9
l-55 0 31 19 c66 40 44 59 -44 37 -32 -8 -100 -17 -152 -20 -108 -7 -318 -33
-331 -42 -23 -14 -4 -19 49 -13 31 4 89 8 127 8 l70 1 -30 -25 c-20 -16 -38
-23 -55 -20 -14 2 -56 -2 -94 -9 -38 -7 -76 -11 -86 -9 -16 4 -48 -23 -38 -32
3 -3 49 -1 103 5 54 6 101 8 103 5 13 -13 -20 -26 -103 -40 -50 -8 -102 -19
-116 -24 -29 -10 -109 7 -109 22 0 5 16 32 35 58 19 27 35 51 35 54 0 3 -12 5
-26 5 l-26 0 29 33 c34 41 65 49 398 111 227 43 490 73 545 64 l25 -4 -30 -13
c-16 -7 -70 -17 -119 -22 -104 -11 -123 -19 -45 -19 l54 -1 -29 -15 c-15 -9
-24 -20 -20 -24 10 -10 187 4 249 20 22 5 74 10 117 10 62 0 88 5 140 28 47
22 92 32 178 41 63 6 131 16 150 20 59 15 67 12 35 -14z m-1623 -125 c-23 -11
-45 -26 -48 -35 -5 -11 -21 -15 -63 -15 -55 0 -180 -15 -213 -26 -10 -3 -18
-11 -18 -18 0 -7 -10 -21 -21 -32 -38 -34 -70 -92 -64 -117 6 -22 2 -24 -72
-40 -72 -16 -113 -21 -113 -14 0 1 39 42 85 92 47 49 82 91 76 93 -5 2 -35 -7
-67 -19 -75 -27 -105 -32 -124 -20 -13 9 -12 12 5 25 11 9 27 14 35 13 8 -2
37 5 63 15 41 16 187 47 477 101 101 20 113 19 62 -3z m-87 -104 c25 -37 6
-62 -62 -82 -65 -19 -60 -24 44 -48 93 -21 190 -20 278 4 39 10 72 16 73 15 8
-7 -65 -38 -131 -56 -38 -11 -82 -26 -98 -34 -24 -13 -36 -13 -86 -1 -32 8
-93 30 -136 51 -81 37 -109 40 -101 8 3 -12 -5 -23 -26 -35 -18 -10 -36 -18
-41 -18 -15 0 1 51 32 103 16 26 29 56 29 67 0 20 6 22 130 39 36 5 68 9 72
10 4 0 15 -10 23 -23z m630 14 c3 -5 38 -10 77 -10 61 0 69 -2 58 -15 -8 -10
-32 -15 -69 -16 -96 -2 -164 -13 -169 -28 -4 -12 12 -13 99 -8 103 7 104 6 81
-13 -16 -14 -32 -17 -57 -13 -38 6 -163 -14 -182 -30 -24 -18 -13 -27 25 -23
20 3 64 8 97 11 60 5 60 5 36 -13 -17 -14 -55 -22 -142 -31 -66 -6 -123 -12
-127 -12 -4 -1 -23 -1 -42 0 l-35 2 30 16 c41 21 79 57 131 125 38 48 50 57
82 61 74 8 101 7 107 -3z m-1591 -88 c3 -5 -6 -19 -21 -32 -18 -16 -24 -18
-20 -7 5 14 1 15 -26 10 -43 -8 -25 12 23 25 19 6 36 11 37 11 1 1 4 -3 7 -7z
m2131 -86 c29 -12 27 -13 -49 -19 -122 -11 -162 -9 -148 5 25 25 151 34 197
14z m-1234 -65 c13 -11 21 -22 18 -26 -6 -5 -229 -14 -229 -9 0 2 19 14 43 28
53 33 133 36 168 7z m896 2 c-13 -13 -33 -17 -89 -16 -40 1 -81 0 -90 -3 -18
-5 -101 -132 -113 -172 -5 -17 -11 -22 -23 -17 -10 4 -23 8 -29 8 -18 1 -7 34
34 114 l35 66 -104 -6 c-57 -4 -114 -10 -128 -14 -22 -6 -24 -5 -11 10 7 9 23
17 35 17 89 2 273 13 331 19 39 5 92 9 120 10 46 1 48 0 32 -16z m-571 -4 c11
-19 -19 -36 -86 -48 -107 -20 -227 -90 -214 -125 3 -8 1 -17 -5 -21 -6 -3 -11
2 -11 12 -1 16 -2 16 -13 3 -7 -8 -21 -22 -31 -30 -18 -14 -19 -13 -12 5 17
44 17 49 -3 26 -12 -13 -21 -18 -21 -12 0 45 112 128 187 138 26 3 62 13 78
22 72 38 119 49 131 30z m-578 -24 c14 -29 2 -40 -34 -31 -21 6 -35 -3 -82
-48 -31 -30 -54 -58 -50 -62 7 -7 49 2 167 37 96 29 102 25 46 -28 -50 -47
-51 -48 -121 -49 -39 -1 -75 -3 -80 -6 -5 -3 -25 -9 -44 -13 l-35 -7 20 22 20
23 -39 -6 c-30 -5 -36 -3 -28 5 7 7 12 15 12 19 0 12 -49 16 -59 6 -6 -6 -13
-8 -16 -5 -3 3 27 29 67 59 40 29 78 58 83 65 13 15 99 42 136 43 18 1 29 -6
37 -24z m1407 15 c28 -7 28 -8 -10 -8 -22 0 -53 4 -70 8 -28 7 -28 8 10 8 22
0 54 -4 70 -8z m-225 -50 c-6 -11 -13 -20 -15 -20 -22 0 -152 -33 -162 -41
-22 -19 -16 -42 10 -35 49 12 142 18 132 8 -23 -23 -205 -55 -205 -37 0 3 8
22 18 43 10 20 17 45 14 55 -3 14 4 17 35 18 21 1 67 7 103 14 36 7 69 13 73
14 4 0 3 -8 -3 -19z m-405 -32 c-15 -24 -34 -55 -43 -70 -14 -22 -21 -26 -42
-20 -14 4 -49 7 -78 7 -28 0 -52 4 -52 9 0 5 -9 1 -20 -9 -29 -26 -25 -13 14
49 20 30 45 56 58 59 30 8 34 2 14 -27 -22 -35 -21 -36 22 -36 45 0 53 5 77
48 15 24 26 32 48 32 l28 0 -26 -42z m499 30 c-5 -7 -2 -9 9 -5 11 4 14 2 10
-9 -5 -14 -25 -19 -36 -8 -8 8 3 34 15 34 5 0 6 -5 2 -12z m-1074 -34 c-51
-43 -62 -56 -71 -84 -9 -23 -65 -57 -77 -46 -2 3 18 34 44 69 36 48 59 68 89
79 22 9 42 14 44 12 2 -2 -11 -15 -29 -30z m310 10 c0 -4 -16 -32 -36 -62 -30
-44 -38 -52 -46 -38 -5 8 -9 19 -9 23 -1 20 -24 34 -48 28 l-26 -6 25 20 c32
26 140 52 140 35z m-1483 -330 c-3 -3 -12 -4 -19 -1 -8 3 -5 6 6 6 11 1 17 -2
13 -5z m-163 -45 c-3 -5 3 -9 12 -9 10 0 15 -2 12 -5 -3 -3 -19 -2 -37 1 -24
5 -29 9 -20 20 11 14 42 8 33 -7z m-142 -21 c-19 -19 -14 -30 8 -18 11 6 20 7
20 2 0 -5 -12 -15 -27 -23 -42 -20 -50 -22 -29 -5 11 9 14 16 8 16 -10 0 -10
5 -2 20 6 11 16 20 22 20 9 0 9 -3 0 -12z m-52 -23 c-11 -13 -10 -14 6 -8 16
6 17 4 7 -9 -7 -8 -10 -18 -6 -21 3 -4 -10 -7 -30 -7 -45 0 -46 8 -4 38 37 26
44 28 27 7z m23 -62 c-7 -2 -19 -2 -25 0 -7 3 -2 5 12 5 14 0 19 -2 13 -5z
m2430 -44 c-8 -16 -12 -33 -9 -36 3 -3 30 7 60 23 54 28 55 28 75 10 24 -22
26 -30 9 -48 -23 -24 -48 -75 -41 -82 4 -4 0 -4 -10 0 -12 4 -17 1 -17 -10 0
-9 7 -19 15 -22 8 -4 15 -13 15 -21 0 -9 6 -13 15 -10 8 4 17 2 20 -3 10 -16
35 -11 42 7 8 20 71 83 83 83 9 0 45 -46 66 -85 6 -11 24 -22 40 -25 23 -4 30
-11 32 -34 4 -30 -15 -86 -28 -86 -5 0 -12 -15 -15 -32 -10 -45 -41 -104 -58
-111 -9 -3 -18 -40 -27 -106 l-13 -101 -35 4 c-37 4 -59 24 -69 64 -7 29 0 36
24 24 24 -13 48 5 50 38 1 14 5 35 8 48 4 15 1 22 -9 22 -19 0 -32 -20 -18
-29 6 -4 -13 -7 -43 -7 -52 -1 -90 -17 -80 -34 3 -4 -2 -13 -10 -20 -8 -7 -15
-29 -15 -49 0 -36 -12 -66 -27 -66 -4 -1 -19 -7 -31 -14 -17 -9 -47 -11 -110
-6 -151 12 -291 32 -311 45 -22 13 193 417 272 509 15 18 38 54 49 80 50 110
51 111 85 111 l31 0 -15 -31z m-305 -79 c0 -17 -3 -28 -8 -25 -5 3 -12 -6 -16
-20 -3 -13 -10 -22 -15 -19 -5 3 -9 -2 -9 -10 0 -8 5 -18 10 -21 6 -3 10 -1
10 6 0 7 2 10 5 7 3 -3 3 -13 -1 -22 -5 -13 -9 -14 -20 -5 -12 10 -13 8 -4
-17 10 -28 9 -28 -6 -9 -14 16 -15 17 -10 3 3 -10 9 -26 12 -35 5 -15 4 -14
-9 2 -15 18 -16 18 -17 3 0 -10 -5 -17 -12 -15 -7 1 -31 -27 -55 -62 -23 -35
-48 -69 -54 -75 -14 -13 -15 -14 43 89 60 107 102 183 122 223 21 40 33 41 34
2z m1072 -45 c0 -5 -5 -3 -10 5 -5 8 -10 20 -10 25 0 6 5 3 10 -5 5 -8 10 -19
10 -25z m-1498 -35 c34 -62 115 -205 150 -263 27 -46 38 -81 19 -61 -16 15
-211 365 -211 377 0 16 14 -1 42 -53z m-188 -117 c47 -87 118 -214 156 -283
38 -69 75 -125 81 -125 6 0 28 30 48 67 48 87 59 98 24 22 -37 -79 -58 -107
-78 -102 -9 2 -39 46 -69 103 -100 194 -192 339 -207 330 -5 -4 -12 1 -15 9
-3 9 -14 16 -23 16 -10 0 -12 -3 -5 -8 6 -4 14 -16 18 -27 13 -37 -19 5 -54
70 -30 55 -31 60 -14 72 38 27 49 15 138 -144z m389 -168 c-3 -9 -8 -14 -10
-11 -3 3 -2 9 2 15 9 16 15 13 8 -4z m-40 -70 c-3 -9 -8 -14 -10 -11 -3 3 -2
9 2 15 9 16 15 13 8 -4z m-264 -60 c0 -5 -6 -1 -14 9 -8 11 -15 27 -15 35 1
17 29 -26 29 -44z m1005 25 c-16 -16 -74 -24 -74 -11 0 7 4 10 8 7 4 -2 14 -1
22 5 21 12 57 12 44 -1z m-949 -113 c20 -38 34 -74 32 -80 -2 -7 -10 0 -17 15
-7 15 -16 25 -21 23 -4 -3 -11 0 -15 6 -4 8 -3 9 4 5 17 -10 15 14 -2 33 -13
15 -36 82 -23 71 2 -3 21 -36 42 -73z"/>
<path d="M3080 3870 c0 -5 5 -10 10 -10 6 0 10 5 10 10 0 6 -4 10 -10 10 -5 0
-10 -4 -10 -10z"/>
<path d="M3079 3350 c-24 -20 -24 -20 -4 -35 17 -14 21 -13 38 4 11 11 17 26
14 35 -8 21 -20 20 -48 -4z"/>
<path d="M3893 3160 c-2 -17 1 -18 18 -10 24 13 25 30 1 30 -11 0 -18 -8 -19
-20z"/>
<path d="M3580 3146 c0 -2 9 -6 20 -9 11 -3 18 -1 14 4 -5 9 -34 13 -34 5z"/>
<path d="M3890 3070 c-6 -11 -7 -20 -3 -20 4 0 2 -4 -5 -9 -11 -7 -11 -9 1
-14 10 -4 17 5 25 29 11 37 -1 46 -18 14z"/>
<path d="M3840 3020 c6 -11 15 -20 20 -20 14 0 1 28 -16 34 -12 4 -12 2 -4
-14z"/>
<path d="M2728 3530 c40 -38 72 -73 72 -78 0 -5 -34 24 -75 64 -41 41 -81 74
-90 74 -8 0 -15 -2 -15 -5 0 -2 37 -40 83 -84 45 -44 79 -83 74 -87 -4 -4 -24
12 -44 35 -51 60 -130 121 -156 121 -21 -1 -21 -1 3 -21 45 -36 140 -131 140
-139 0 -5 14 -19 31 -31 25 -18 35 -20 55 -10 57 26 17 119 -85 197 -73 56
-69 38 7 -36z"/>
<path d="M2492 3531 c-10 -6 -10 -10 2 -20 10 -8 13 -23 9 -47 -5 -30 -1 -39
35 -75 36 -35 46 -40 71 -34 35 7 45 -11 39 -78 -2 -33 1 -42 14 -45 12 -2 19
7 25 40 9 42 9 43 47 40 32 -3 37 -1 34 14 -2 11 -16 21 -35 25 -47 9 -63 26
-57 58 10 48 -70 120 -119 107 -12 -3 -28 1 -37 9 -9 8 -21 11 -28 6z m132
-70 c26 -29 4 -33 -29 -5 -25 21 -26 24 -8 24 11 0 28 -9 37 -19z m-44 -32 c7
-11 9 -23 6 -26 -7 -7 -46 26 -46 39 0 17 30 7 40 -13z"/>
<path d="M2394 3459 c-3 -6 16 -34 43 -62 38 -39 152 -177 169 -205 4 -7 44 9
44 17 0 14 -95 135 -157 199 -56 60 -84 74 -99 51z"/>
<path d="M2350 3405 c-11 -13 -7 -21 22 -48 20 -17 68 -72 108 -120 48 -57 78
-86 87 -82 8 3 17 5 19 5 24 0 -22 60 -162 213 -48 51 -55 55 -74 32z"/>
<path d="M2320 3328 c-40 -15 -60 -39 -60 -72 0 -24 16 -48 73 -110 67 -72 75
-78 95 -67 22 12 22 12 -12 49 -59 64 -107 132 -101 142 15 24 44 5 100 -64
73 -89 85 -98 109 -81 16 13 11 21 -63 107 -45 51 -89 96 -99 99 -9 4 -28 2
-42 -3z"/>
<path d="M3550 2400 c-8 -5 -25 -10 -37 -10 -12 0 -25 -4 -28 -10 -4 -6 42
-10 132 -10 127 1 136 2 111 16 -15 8 -47 14 -70 13 -24 -1 -54 2 -68 5 -14 4
-32 2 -40 -4z"/>
<path d="M2281 1557 c-14 -6 -26 -18 -29 -24 -6 -21 27 -15 66 12 34 23 35 25
12 25 -14 0 -36 -6 -49 -13z"/>
<path d="M3240 431 c0 -5 5 -13 10 -16 6 -3 10 -2 10 4 0 5 -4 13 -10 16 -5 3
-10 2 -10 -4z"/>
<path d="M3152 388 c-7 -7 -12 -23 -11 -37 0 -15 3 -20 6 -13 2 6 16 12 29 12
19 0 24 5 24 25 0 27 -26 35 -48 13z"/>
<path d="M3473 324 c-28 -26 -29 -34 -3 -34 13 0 22 9 26 25 8 34 4 36 -23 9z"/>
<path d="M2075 4780 c-3 -5 -2 -10 4 -10 5 0 13 5 16 10 3 6 2 10 -4 10 -5 0
-13 -4 -16 -10z"/>
<path d="M2101 4671 c-25 -7 -42 -31 -21 -31 7 0 8 -6 1 -19 -10 -18 -6 -31
11 -31 4 0 8 14 8 31 0 19 7 37 18 45 19 15 18 15 -17 5z"/>
<path d="M2114 4624 c3 -9 6 -18 6 -21 0 -3 7 0 15 7 17 14 11 30 -12 30 -10
0 -13 -6 -9 -16z"/>
<path d="M2070 4515 c0 -8 2 -15 4 -15 2 0 6 7 10 15 3 8 1 15 -4 15 -6 0 -10
-7 -10 -15z"/>
<path d="M4360 3946 c-24 -45 -99 -49 -85 -5 8 23 7 23 -54 -18 -41 -28 -60
-29 -103 -4 -51 29 -78 35 -78 17 0 -9 5 -16 12 -16 9 0 9 -3 0 -12 -19 -19
-14 -28 18 -28 19 0 30 -5 30 -14 0 -7 17 -20 38 -28 l37 -15 -36 -7 c-33 -7
-36 -10 -34 -39 1 -17 9 -33 16 -35 8 -3 11 -1 7 3 -4 4 -1 14 7 21 7 8 15 19
17 26 6 16 79 -15 104 -43 10 -11 23 -19 30 -19 7 0 38 -22 70 -49 52 -45 59
-48 70 -33 10 14 9 20 -6 35 -23 20 -17 42 19 76 21 19 22 22 6 16 -11 -4 -38
-9 -61 -12 -45 -6 -74 13 -74 47 0 18 40 99 62 127 6 7 8 17 6 24 -2 6 -10 -1
-18 -15z"/>
<path d="M1080 3937 c0 -19 16 -31 24 -18 3 5 -1 14 -9 21 -12 10 -15 10 -15
-3z"/>
<path d="M513 3910 c-24 -10 -43 -22 -43 -25 0 -3 9 -1 19 5 12 6 22 6 25 1 4
-5 0 -11 -6 -14 -17 -6 -9 -13 22 -21 14 -3 19 -3 12 0 -8 4 -10 10 -3 17 6 8
57 12 155 12 119 -1 142 2 124 11 -69 36 -240 44 -305 14z"/>
<path d="M1160 3888 c0 -10 -4 -18 -9 -18 -14 0 -7 -36 12 -54 18 -19 23 -31
8 -21 -5 3 -12 1 -15 -4 -3 -5 -18 -12 -32 -15 -15 -4 -34 -14 -42 -23 -15
-14 -17 -14 -24 8 -6 18 -33 35 -101 66 l-92 43 45 -41 c47 -43 149 -115 175
-125 21 -8 85 36 85 59 0 11 8 17 25 17 14 0 25 5 25 10 0 6 -4 10 -10 10 -12
0 -44 60 -36 68 4 3 11 1 16 -4 12 -12 70 -6 70 6 0 4 -7 13 -15 20 -13 11
-20 10 -41 -1 -22 -11 -27 -11 -34 1 -8 13 -10 12 -10 -2z"/>
<path d="M33 3796 l-33 -15 0 -81 0 -82 29 19 c16 10 46 30 68 45 28 20 57 30
102 34 95 10 96 -7 4 -74 -54 -40 -71 -57 -61 -63 7 -5 9 -9 4 -9 -5 0 -4 -6
2 -13 6 -7 9 -27 7 -45 -4 -34 18 -91 30 -73 4 7 13 8 23 2 9 -4 23 -6 30 -4
6 3 12 -3 12 -12 0 -9 -4 -13 -10 -10 -5 3 -10 -1 -10 -11 0 -13 3 -14 15 -4
8 6 20 8 27 4 10 -5 11 -4 1 7 -7 7 -13 21 -13 32 0 10 -4 16 -9 12 -5 -3 -12
4 -16 14 -4 12 -12 18 -21 14 -7 -3 -14 -1 -14 4 0 13 40 13 41 0 0 -7 5 -1
11 13 9 23 11 23 17 6 6 -15 12 -9 32 30 14 27 37 68 52 91 l27 42 53 -18 c29
-10 77 -34 107 -53 121 -77 201 -111 276 -116 67 -4 72 -3 79 17 3 12 26 41
51 65 24 24 44 48 44 54 0 6 -42 10 -102 11 -116 2 -275 29 -390 67 -68 23
-81 32 -80 54 0 3 -18 6 -41 7 -23 2 -68 12 -102 24 -77 28 -198 35 -242 15z"/>
<path d="M4298 3698 c12 -13 19 -28 15 -33 -5 -4 -2 -5 4 -1 7 4 25 -7 44 -26
17 -18 27 -26 23 -18 -13 24 -38 50 -74 77 l-35 26 23 -25z"/>
<path d="M4015 3690 c-22 -24 -13 -39 10 -16 9 9 24 16 33 16 15 0 15 2 2 10
-21 13 -24 13 -45 -10z"/>
<path d="M4080 3680 c0 -5 5 -10 11 -10 5 0 7 5 4 10 -3 6 -8 10 -11 10 -2 0
-4 -4 -4 -10z"/>
<path d="M4150 3669 c0 -6 -4 -7 -10 -4 -6 4 -7 -1 -3 -11 4 -12 3 -15 -5 -10
-8 4 -10 2 -6 -7 3 -8 15 -17 26 -20 16 -5 18 -3 9 6 -15 15 -14 27 4 27 8 0
15 4 15 9 0 5 -7 11 -15 15 -8 3 -15 1 -15 -5z"/>
<path d="M4245 3630 c-3 -5 1 -10 10 -10 9 0 13 5 10 10 -3 6 -8 10 -10 10 -2
0 -7 -4 -10 -10z"/>
<path d="M3815 3540 c-4 -6 4 -21 18 -34 24 -22 26 -22 40 -5 12 13 13 20 4
27 -21 17 -55 23 -62 12z"/>
<path d="M127 3514 c6 -15 23 -19 23 -5 0 5 -7 11 -14 14 -10 4 -13 1 -9 -9z"/>
<path d="M1230 3498 c5 -57 0 -78 -18 -78 -27 0 -72 23 -72 38 0 26 -40 12
-56 -20 -16 -30 -18 -31 -26 -13 -7 17 -8 16 -4 -5 2 -14 7 -40 11 -57 6 -29
3 -34 -19 -44 -14 -7 -26 -18 -26 -25 0 -7 -12 -22 -27 -33 l-28 -21 47 -43
c41 -38 47 -48 45 -79 -2 -29 -10 -43 -41 -67 -21 -17 -43 -31 -49 -31 -6 0
-7 -3 -4 -7 4 -3 3 -11 -3 -17 -5 -7 -13 -31 -18 -54 -9 -36 -8 -42 7 -42 9 0
28 -7 44 -14 19 -11 27 -12 27 -3 1 48 21 141 33 150 8 7 22 24 31 39 16 24
16 27 1 35 -15 9 -15 11 -1 23 12 9 13 16 5 26 -8 10 4 11 63 7 62 -5 79 -2
113 16 44 23 76 26 106 10 15 -8 26 -7 42 4 12 8 40 20 62 27 22 7 46 17 53
23 7 6 28 11 45 12 18 0 61 2 97 4 l65 3 -45 11 c-36 10 -50 10 -72 -1 -28
-13 -48 -10 -48 9 0 5 7 9 15 9 16 0 20 36 6 58 -6 10 -10 6 -16 -15 l-8 -28
-6 25 c-8 27 -44 35 -70 16 -12 -10 -12 -8 0 14 8 14 22 31 32 38 25 19 21 42
-8 42 -17 0 -23 4 -19 15 9 22 -42 39 -77 26 -18 -6 -31 -6 -34 0 -4 5 -13 9
-21 9 -16 0 -15 -30 1 -42 6 -5 6 -8 -2 -8 -6 0 -20 8 -29 18 -16 15 -17 15
-12 0 4 -9 3 -18 -2 -20 -6 -2 -6 -9 0 -17 7 -13 11 -13 26 0 15 12 17 12 9 0
-6 -11 -4 -13 9 -8 9 4 15 3 12 -2 -3 -5 -17 -8 -31 -8 -28 0 -55 30 -55 60 0
10 -3 16 -7 14 -10 -5 -43 30 -35 37 3 3 0 6 -7 6 -7 0 -12 -10 -11 -22z m160
-134 c0 -8 5 -14 10 -14 6 0 10 -7 10 -15 0 -21 -17 -19 -23 3 -2 9 -8 26 -13
36 -5 14 -4 17 4 12 7 -4 12 -14 12 -22z m20 -64 c0 -5 -5 -10 -11 -10 -5 0
-7 5 -4 10 3 6 8 10 11 10 2 0 4 -4 4 -10z"/>
<path d="M4373 3386 c3 -8 0 -16 -6 -19 -12 -5 -23 -67 -12 -67 6 0 22 38 31
75 4 16 2 25 -6 25 -7 0 -10 -6 -7 -14z"/>
<path d="M4341 3264 c-12 -28 -9 -40 7 -30 8 5 14 56 7 56 -1 0 -7 -12 -14
-26z"/>
<path d="M980 3190 c0 -5 5 -10 10 -10 6 0 10 5 10 10 0 6 -4 10 -10 10 -5 0
-10 -4 -10 -10z"/>
<path d="M1209 3108 c0 -7 -3 -24 -5 -37 l-4 -25 25 24 c19 18 22 26 14 37
-14 16 -29 17 -30 1z"/>
<path d="M816 3064 c-10 -14 -15 -31 -12 -37 2 -7 5 -4 5 5 1 9 6 20 13 24 8
5 9 0 5 -15 -4 -18 -3 -20 9 -10 15 13 19 59 5 59 -5 0 -16 -12 -25 -26z"/>
<path d="M839 2958 c-1 -2 -3 -12 -4 -23 -2 -11 -6 -28 -10 -37 -4 -10 -3 -18
3 -18 5 0 7 -11 5 -24 -6 -30 9 -39 33 -21 16 12 17 17 7 34 -7 12 -13 37 -13
56 0 19 -4 35 -10 35 -5 0 -11 -1 -11 -2z"/>
<path d="M850 2781 c0 -12 5 -21 10 -21 6 0 10 6 10 14 0 8 -4 18 -10 21 -5 3
-10 -3 -10 -14z"/>
<path d="M770 2525 c0 -11 5 -27 10 -35 8 -12 10 -12 10 5 0 11 -5 27 -10 35
-8 12 -10 12 -10 -5z"/>
<path d="M860 2510 c0 -16 29 -44 38 -36 8 8 -10 38 -26 44 -7 2 -12 -2 -12
-8z"/>
<path d="M4330 2471 c5 -11 10 -36 10 -57 0 -31 2 -35 15 -24 20 16 19 35 -2
71 -19 32 -40 41 -23 10z"/>
<path d="M806 2400 c3 -14 10 -29 15 -34 14 -16 10 6 -7 34 l-15 25 7 -25z"/>
<path d="M4164 2236 c-10 -8 -16 -17 -13 -20 3 -3 14 3 24 14 21 23 17 26 -11
6z"/>
<path d="M895 992 c-16 -12 -16 -32 1 -32 8 0 12 5 8 11 -3 6 0 15 7 20 8 5
10 9 4 9 -5 0 -14 -4 -20 -8z"/>
<path d="M836 962 c-2 -4 4 -8 14 -8 10 0 16 4 14 8 -3 4 -9 8 -14 8 -5 0 -11
-4 -14 -8z"/>
<path d="M670 774 c-22 -12 -23 -14 -5 -14 31 0 65 11 65 21 0 13 -31 9 -60
-7z"/>
<path d="M647 699 c7 -7 15 -10 18 -7 3 3 -2 9 -12 12 -14 6 -15 5 -6 -5z"/>
<path d="M3837 593 c-11 -10 -8 -53 3 -53 6 0 10 14 10 30 0 31 -2 35 -13 23z"/>
<path d="M3853 498 c-1 -11 3 -16 9 -12 6 4 15 0 20 -7 8 -11 8 -10 4 4 -3 10
-6 22 -6 26 0 17 -26 6 -27 -11z"/>
<path d="M3715 471 c-3 -5 -1 -12 5 -16 5 -3 10 1 10 9 0 18 -6 21 -15 7z"/>
<path d="M1650 429 c0 -11 66 -42 80 -37 6 2 -9 13 -34 25 -25 11 -46 17 -46
12z"/>
<path d="M1845 360 c-3 -5 11 -16 30 -26 35 -16 53 -15 41 4 -9 15 -65 32 -71
22z"/>
</g>
</svg>
